<?xml version="1.0" encoding="utf-8"?>
<svg version="1.1"
	 id="Layer_1" image-rendering="optimizeQuality" text-rendering="geometricPrecision" shape-rendering="geometricPrecision"
	 xmlns="http://www.w3.org/2000/svg"  x="0px" y="0px" width="1024px" height="1024px"
	 viewBox="0 0 1024 1024" enable-background="new 0 0 1024 1024" xml:space="preserve">
<title>onboarding_white icon</title>
<path id="curve0" fill="#252525" d="M512,64c247.4,0,448,157.6,448,352c0,91.1-44,174-116.2,236.5c-10.8,9.3-17.399,20.3-20.6,34.1
	C791.4,825.9,674.6,928,512,928c21.3-21.3,35.4-47.5,44.9-76.1c6.6-19.801,3.699-39.801-8.4-56.9c-12-17.2-29.8-26.7-50.7-27.2
	C256.9,761.9,64,606.7,64,416C64,221.6,264.6,64,512,64z M623.9,841.4c68.1-30,118.6-88.601,137-169
	c6.199-27.101,20-50.101,41-68.301C857.5,556,896,490.9,896,416c0-190.6-220.3-288-384-288s-384,97.4-384,288
	c0,21.7,3.3,43.1,9.6,63.8c45.2,147.7,219.1,220.5,361.7,224c41.2,1.101,77.9,20.601,101.601,54.4
	C618.4,783,626.2,812.1,623.9,841.4z"/>
<g>
	<g>
		<rect x="411.047" y="497.22" fill="#252525" width="55.698" height="55.697"/>
		<path fill="#252525" d="M550.292,357.974c0,41.31-30.75,76.701-71.71,82.619c-7.079,1.044-11.836,6.73-11.836,13.808v17.87
			h-55.698v-17.87c0-34.579,25.412-63.82,59.759-68.811c13.692-1.972,23.788-13.808,23.788-27.617
			c0-15.317-12.532-27.849-27.849-27.849h-55.698c-15.317,0-27.849,12.532-27.849,27.849v9.283H327.5v-9.283
			c0-46.067,37.48-83.547,83.547-83.547h55.698C512.813,274.427,550.292,311.907,550.292,357.974z"/>
	</g>
	<g>
		<rect x="640.802" y="283.71" fill="#252525" width="55.698" height="170.343"/>
		<rect x="640.802" y="487.937" fill="#252525" width="55.698" height="55.697"/>
	</g>
</g>
</svg>
