<?xml version="1.0" encoding="utf-8"?>
<svg version="1.1"
	 id="Layer_1" image-rendering="optimizeQuality" text-rendering="geometricPrecision" shape-rendering="geometricPrecision"
	 xmlns="http://www.w3.org/2000/svg"  x="0px" y="0px" width="1024px" height="1024px"
	 viewBox="0 0 1024 1024" enable-background="new 0 0 1024 1024" xml:space="preserve">
<title>onboarding_black icon</title>
<path id="curve0" fill="#252525" d="M511,80C263.6,80,63,237.6,63,432c0,190.7,192.9,345.9,433.8,351.8c20.9,0.5,38.7,10,50.7,27.2
	c12.1,17.1,15,37.1,8.4,56.9c-9.5,28.6-23.601,54.8-44.9,76.1c162.6,0,279.4-102.1,311.2-241.4c3.2-13.8,9.8-24.8,20.6-34.1
	C915,606,959,523.1,959,432C959,237.6,758.4,80,511,80z M800.9,620.1c-21,18.2-34.801,41.2-41,68.301c-18.4,80.399-68.9,139-137,169
	c2.3-29.301-5.5-58.4-23-83.2c-23.7-33.8-60.4-53.3-101.601-54.4c-142.6-3.5-316.5-76.3-361.7-224c-6.3-20.7-9.6-42.1-9.6-63.8
	c0-190.6,220.3-288,384-288s384,97.4,384,288C895,506.9,856.5,572,800.9,620.1z"/>
<path fill="#252525" d="M511,80C263.6,80,63,237.6,63,432c0,190.7,192.9,345.9,433.8,351.8c20.9,0.5,38.7,10,50.7,27.2
	c12.1,17.1,15,37.1,8.4,56.9c-9.5,28.6-23.601,54.8-44.9,76.1c162.6,0,279.4-102.1,311.2-241.4c3.2-13.8,9.8-24.8,20.6-34.1
	C915,606,959,523.1,959,432C959,237.6,758.4,80,511,80z M639.8,559.63v-55.69h55.7v55.69H639.8z M695.5,470.05h-55.7V299.71h55.7
	V470.05z M477.58,456.59c-7.08,1.05-11.83,6.73-11.83,13.81v17.87h-55.7V470.4c0-34.58,25.41-63.82,59.76-68.81
	c13.69-1.97,23.78-13.81,23.78-27.62c0-15.31-12.53-27.85-27.84-27.85h-55.7c-15.32,0-27.85,12.54-27.85,27.85v9.29h-55.7v-9.29
	c0-46.06,37.48-83.54,83.55-83.54h55.7c46.06,0,83.54,37.48,83.54,83.54C549.29,415.28,518.54,450.67,477.58,456.59z M410.05,568.92
	v-55.7h55.7v55.7H410.05z"/>
</svg>
